<svg xmlns="http://www.w3.org/2000/svg" xmlns:xlink="http://www.w3.org/1999/xlink" version="1.1" width="1080" height="1080" viewBox="0 0 1080 1080" xml:space="preserve">
<desc>Created with Fabric.js 3.5.0</desc>
<defs>
</defs>
<rect x="0" y="0" width="100%" height="100%" fill="#ffffff"/>
<g transform="matrix(1 0 0 1 524.5012 514.717)" id="665856">
<g style="">
		<g transform="matrix(1.8136 0 0 1.8136 520.0674 336.9075)" id="Vector_31" clip-path="url(#CLIPPATH_26)">
<clipPath id="CLIPPATH_26">
	<rect transform="matrix(1 0 0 1 -289.425 -184.9645)" id="clip0" x="-294.5" y="-301" rx="0" ry="0" width="589" height="602"/>
</clipPath>
<path style="stroke: none; stroke-width: 0; stroke-dasharray: none; stroke-linecap: butt; stroke-dashoffset: 0; stroke-linejoin: miter; stroke-miterlimit: 4; is-custom-font: none; font-file-url: none; fill: rgb(196,199,214); fill-rule: nonzero; opacity: 1;" transform=" translate(-583.925, -485.9645)" d="M 582.017 492.725 L 585.833 490.522 L 584.184 479.204 L 582.017 492.725 Z" stroke-linecap="round"/>
</g>
		<g transform="matrix(1.8136 0 0 1.8136 -120.3046 -539.9289)" id="Vector_32" clip-path="url(#CLIPPATH_27)">
<clipPath id="CLIPPATH_27">
	<rect transform="matrix(1 0 0 1 63.669 298.5133)" id="clip0" x="-294.5" y="-301" rx="0" ry="0" width="589" height="602"/>
</clipPath>
<path style="stroke: none; stroke-width: 0; stroke-dasharray: none; stroke-linecap: butt; stroke-dashoffset: 0; stroke-linejoin: miter; stroke-miterlimit: 4; is-custom-font: none; font-file-url: none; fill: rgb(177,180,196); fill-rule: nonzero; opacity: 1;" transform=" translate(-230.831, -2.4867)" d="M 226.25 2.69682 L 230.007 0.517578 L 235.412 3.61186 C 235.412 3.61186 229.658 4.49078 229.513 4.45466 C 229.369 4.41854 226.25 2.69682 226.25 2.69682 Z" stroke-linecap="round"/>
</g>
		<g transform="matrix(1.3515 0 0 2.2213 521.0308 200.1901)" id="Vector_2" clip-path="url(#CLIPPATH_28)">
<clipPath id="CLIPPATH_28">
	<rect transform="matrix(1 0 0 1 -391.1865 -92.9473)" id="clip0" x="-415.5" y="-241" rx="0" ry="0" width="831" height="482"/>
</clipPath>
<path style="stroke: none; stroke-width: 1; stroke-dasharray: none; stroke-linecap: butt; stroke-dashoffset: 0; stroke-linejoin: miter; stroke-miterlimit: 4; is-custom-font: none; font-file-url: none; fill: rgb(231,246,255); fill-rule: nonzero; opacity: 1;" transform=" translate(-806.6865, -333.9473)" d="M 806.691 350.716 C 805.341 350.714 803.996 350.551 802.685 350.231 C 798.538 349.211 794.936 346.646 792.616 343.06 C 790.295 339.473 789.43 335.136 790.198 330.934 C 790.965 326.731 793.307 322.98 796.746 320.446 C 800.184 317.912 804.46 316.787 808.699 317.3 C 812.939 317.813 816.823 319.926 819.558 323.207 C 822.294 326.488 823.674 330.689 823.418 334.954 C 823.162 339.218 821.288 343.224 818.179 346.153 C 815.071 349.083 810.962 350.715 806.691 350.716 Z M 806.691 324.742 C 804.47 324.751 802.328 325.571 800.669 327.05 C 799.011 328.528 797.95 330.562 797.686 332.769 C 797.422 334.976 797.974 337.203 799.238 339.031 C 800.501 340.859 802.389 342.161 804.546 342.694 V 342.694 C 805.795 342.994 807.093 343.026 808.355 342.789 C 809.617 342.551 810.815 342.049 811.869 341.315 C 812.923 340.581 813.81 339.632 814.472 338.531 C 815.133 337.429 815.554 336.2 815.706 334.924 C 815.859 333.649 815.739 332.355 815.356 331.129 C 814.973 329.902 814.335 328.771 813.483 327.809 C 812.632 326.847 811.586 326.077 810.415 325.548 C 809.245 325.02 807.976 324.745 806.691 324.742 V 324.742 Z" stroke-linecap="round"/>
</g>
		<g transform="matrix(1.3515 0 0 2.2213 490.7458 273.1061)" id="Vector_3" clip-path="url(#CLIPPATH_29)">
<clipPath id="CLIPPATH_29">
	<rect transform="matrix(1 0 0 1 -368.7785 -125.7733)" id="clip0" x="-415.5" y="-241" rx="0" ry="0" width="831" height="482"/>
</clipPath>
<path style="stroke: none; stroke-width: 1; stroke-dasharray: none; stroke-linecap: butt; stroke-dashoffset: 0; stroke-linejoin: miter; stroke-miterlimit: 4; is-custom-font: none; font-file-url: none; fill: rgb(231,246,255); fill-rule: nonzero; opacity: 1;" transform=" translate(-784.2785, -366.7733)" d="M 791.393 368.499 C 792.346 364.568 789.933 360.609 786.004 359.656 C 782.074 358.702 778.117 361.116 777.164 365.047 C 776.211 368.979 778.624 372.938 782.553 373.891 C 786.483 374.844 790.441 372.43 791.393 368.499 Z" stroke-linecap="round"/>
</g>
		<g transform="matrix(1.3515 0 0 2.2213 -520.5432 196.432)" id="Vector_4" clip-path="url(#CLIPPATH_30)">
<clipPath id="CLIPPATH_30">
	<rect transform="matrix(1 0 0 1 379.4696 -91.2555)" id="clip0" x="-415.5" y="-241" rx="0" ry="0" width="831" height="482"/>
</clipPath>
<path style="stroke: none; stroke-width: 1; stroke-dasharray: none; stroke-linecap: butt; stroke-dashoffset: 0; stroke-linejoin: miter; stroke-miterlimit: 4; is-custom-font: none; font-file-url: none; fill: rgb(231,246,255); fill-rule: nonzero; opacity: 1;" transform=" translate(-36.0305, -332.2555)" d="M 35.6621 349.119 C 31.2239 349.022 27.0031 347.178 23.9159 343.986 C 20.8287 340.795 19.1244 336.514 19.1729 332.074 C 19.2214 327.633 21.0188 323.39 24.1749 320.267 C 27.3311 317.144 31.5912 315.392 36.0304 315.392 C 40.4697 315.392 44.7298 317.144 47.886 320.267 C 51.0421 323.39 52.8395 327.633 52.888 332.074 C 52.9365 336.514 51.2322 340.795 48.145 343.986 C 45.0578 347.178 40.837 349.022 36.3988 349.119 H 35.6621 Z M 35.6621 323.152 H 35.2809 C 32.8838 323.204 30.604 324.2 28.9364 325.923 C 27.2688 327.646 26.348 329.958 26.374 332.357 C 26.3999 334.755 27.3705 337.047 29.075 338.733 C 30.7795 340.42 33.0804 341.366 35.478 341.366 C 37.8756 341.366 40.1764 340.42 41.8809 338.733 C 43.5854 337.047 44.556 334.755 44.582 332.357 C 44.6079 329.958 43.6871 327.646 42.0195 325.923 C 40.3519 324.2 38.0721 323.204 35.675 323.152 H 35.6621 Z" stroke-linecap="round"/>
</g>
		<g transform="matrix(1.3515 0 0 2.2213 -537.7112 280.5046)" id="Vector_5" clip-path="url(#CLIPPATH_31)">
<clipPath id="CLIPPATH_31">
	<rect transform="matrix(1 0 0 1 392.1724 -129.104)" id="clip0" x="-415.5" y="-241" rx="0" ry="0" width="831" height="482"/>
</clipPath>
<path style="stroke: none; stroke-width: 1; stroke-dasharray: none; stroke-linecap: butt; stroke-dashoffset: 0; stroke-linejoin: miter; stroke-miterlimit: 4; is-custom-font: none; font-file-url: none; fill: rgb(231,246,255); fill-rule: nonzero; opacity: 1;" transform=" translate(-23.3276, -370.104)" d="M 23.6431 377.421 C 27.6827 377.247 30.8161 373.83 30.6419 369.788 C 30.4676 365.747 27.0516 362.612 23.0121 362.787 C 18.9725 362.961 15.839 366.378 16.0133 370.42 C 16.1875 374.461 19.6035 377.596 23.6431 377.421 Z" stroke-linecap="round"/>
</g>
		<g transform="matrix(1.3515 0 0 2.2213 369.5137 515.8483)" id="Vector_13" clip-path="url(#CLIPPATH_32)">
<clipPath id="CLIPPATH_32">
	<rect transform="matrix(1 0 0 1 -279.081 -235.053)" id="clip0" x="-415.5" y="-241" rx="0" ry="0" width="831" height="482"/>
</clipPath>
<path style="stroke: none; stroke-width: 1; stroke-dasharray: none; stroke-linecap: butt; stroke-dashoffset: 0; stroke-linejoin: miter; stroke-miterlimit: 4; is-custom-font: none; font-file-url: none; fill: rgb(66,101,114); fill-rule: nonzero; opacity: 1;" transform=" translate(-694.581, -476.053)" d="M 751.715 480.255 H 633.247 V 471.851 H 751.715 C 752.829 471.851 753.897 472.294 754.685 473.082 C 755.473 473.87 755.915 474.939 755.915 476.053 C 755.915 477.167 755.473 478.236 754.685 479.024 C 753.897 479.812 752.829 480.255 751.715 480.255 Z" stroke-linecap="round"/>
</g>
		<g transform="matrix(1.0279 0 0 1.0279 -250.7751 -424.6286)" id="Vector_2">
<path style="stroke: none; stroke-width: 1; stroke-dasharray: none; stroke-linecap: butt; stroke-dashoffset: 0; stroke-linejoin: miter; stroke-miterlimit: 4; is-custom-font: none; font-file-url: none; fill: rgb(215,20,20); fill-rule: nonzero; opacity: 0.15;" transform=" translate(-438.043, -149.0558)" d="M 634.312 67.4036 H 241.774 C 196.659 67.4036 160.086 103.96 160.086 149.056 C 160.086 194.151 196.659 230.708 241.774 230.708 H 634.312 C 679.427 230.708 716 194.151 716 149.056 C 716 103.96 679.427 67.4036 634.312 67.4036 Z" stroke-linecap="round"/>
</g>
		<g transform="matrix(1.1725 0 0 1.1725 -268.6972 96.3216)" id="Vector_3">
<path style="stroke: none; stroke-width: 1; stroke-dasharray: none; stroke-linecap: butt; stroke-dashoffset: 0; stroke-linejoin: miter; stroke-miterlimit: 4; is-custom-font: none; font-file-url: none; fill: rgb(43,195,247); fill-rule: nonzero; opacity: 1;" transform=" translate(-94.8453, -260.849)" d="M 94.8452 269.069 C 99.3869 269.069 103.069 265.388 103.069 260.849 C 103.069 256.309 99.3869 252.629 94.8452 252.629 C 90.3034 252.629 86.6216 256.309 86.6216 260.849 C 86.6216 265.388 90.3034 269.069 94.8452 269.069 Z" stroke-linecap="round"/>
</g>
		<g transform="matrix(1.1725 0 0 1.1725 359.9527 -56.597)" id="Vector_4">
<path style="stroke: none; stroke-width: 1; stroke-dasharray: none; stroke-linecap: butt; stroke-dashoffset: 0; stroke-linejoin: miter; stroke-miterlimit: 4; is-custom-font: none; font-file-url: none; fill: rgb(43,195,247); fill-rule: nonzero; opacity: 1;" transform=" translate(-631.0235, -130.424)" d="M 631.023 138.644 C 635.565 138.644 639.247 134.964 639.247 130.424 C 639.247 125.885 635.565 122.204 631.023 122.204 C 626.481 122.204 622.8 125.885 622.8 130.424 C 622.8 134.964 626.481 138.644 631.023 138.644 Z" stroke-linecap="round"/>
</g>
		<g transform="matrix(1.1725 0 0 1.1725 -173.5644 226.1076)" id="Vector_5">
<path style="stroke: none; stroke-width: 1; stroke-dasharray: none; stroke-linecap: butt; stroke-dashoffset: 0; stroke-linejoin: miter; stroke-miterlimit: 4; is-custom-font: none; font-file-url: none; fill: rgb(159,231,145); fill-rule: nonzero; opacity: 1;" transform=" translate(-175.9845, -371.544)" d="M 175.985 379.764 C 180.527 379.764 184.208 376.084 184.208 371.544 C 184.208 367.004 180.527 363.324 175.985 363.324 C 171.443 363.324 167.761 367.004 167.761 371.544 C 167.761 376.084 171.443 379.764 175.985 379.764 Z" stroke-linecap="round"/>
</g>
		<g transform="matrix(1.1725 0 0 1.1725 333.1126 277.2657)" id="Vector_28">
<path style="stroke: none; stroke-width: 1; stroke-dasharray: none; stroke-linecap: butt; stroke-dashoffset: 0; stroke-linejoin: miter; stroke-miterlimit: 4; is-custom-font: none; font-file-url: none; fill: rgb(66,101,114); fill-rule: nonzero; opacity: 1;" transform=" translate(-497.2524, -271.808)" d="M 497.253 332.636 C 485.217 332.636 473.451 329.068 463.444 322.385 C 453.436 315.701 445.636 306.201 441.03 295.086 C 436.424 283.971 435.219 271.74 437.567 259.941 C 439.915 248.142 445.711 237.303 454.222 228.796 C 462.733 220.289 473.576 214.496 485.38 212.149 C 497.185 209.802 509.421 211.006 520.541 215.61 C 531.66 220.214 541.164 228.011 547.851 238.014 C 554.538 248.017 558.107 259.777 558.107 271.808 C 558.09 287.935 551.673 303.397 540.264 314.801 C 528.855 326.204 513.387 332.619 497.253 332.636 V 332.636 Z M 497.253 219.748 C 486.952 219.748 476.882 222.801 468.317 228.522 C 459.752 234.242 453.076 242.373 449.134 251.885 C 445.192 261.398 444.161 271.866 446.171 281.964 C 448.18 292.063 453.141 301.339 460.424 308.62 C 467.708 315.901 476.989 320.859 487.092 322.868 C 497.195 324.876 507.667 323.845 517.184 319.905 C 526.701 315.965 534.835 309.292 540.558 300.731 C 546.281 292.17 549.335 282.104 549.335 271.808 C 549.321 258.005 543.829 244.772 534.065 235.012 C 524.3 225.252 511.061 219.762 497.253 219.748 V 219.748 Z" stroke-linecap="round"/>
</g>
		<g transform="matrix(1.1725 0 0 1.1725 265.9054 210.9699)" id="Vector_30">
<path style="stroke: none; stroke-width: 1; stroke-dasharray: none; stroke-linecap: butt; stroke-dashoffset: 0; stroke-linejoin: miter; stroke-miterlimit: 4; is-custom-font: none; font-file-url: none; fill: rgb(50,202,248); fill-rule: nonzero; opacity: 0.0225;" transform=" translate(-550.8101, -358.633)" d="M 556.298 349.865 L 540.673 362.776 C 537.384 365.483 542.088 370.108 545.322 367.423 L 560.947 354.49 C 564.236 351.783 559.533 347.158 556.298 349.843 V 349.865 Z" stroke-linecap="round"/>
</g>
		<g transform="matrix(1.1725 0 0 1.1725 265.9118 211.0023)" id="Vector_31">
<path style="stroke: none; stroke-width: 1; stroke-dasharray: none; stroke-linecap: butt; stroke-dashoffset: 0; stroke-linejoin: miter; stroke-miterlimit: 4; is-custom-font: none; font-file-url: none; fill: rgb(50,202,248); fill-rule: nonzero; opacity: 0.0225;" transform=" translate(-550.8156, -358.6606)" d="M 559.609 364.135 L 546.671 348.528 C 543.963 345.24 539.335 349.942 542.022 353.175 L 554.96 368.793 C 557.669 372.081 562.296 367.38 559.609 364.146 V 364.135 Z" stroke-linecap="round"/>
</g>
		<g transform="matrix(0 1 -1 0 520.0674 194.4069)" id="169504">
<g style="">
		<g transform="matrix(1.1725 0 0 1.1725 168.2185 -7.7103)" id="Vector_6">
<path style="stroke: none; stroke-width: 1; stroke-dasharray: none; stroke-linecap: butt; stroke-dashoffset: 0; stroke-linejoin: miter; stroke-miterlimit: 4; is-custom-font: none; font-file-url: none; fill: rgb(159,231,145); fill-rule: nonzero; opacity: 1;" transform=" translate(-521.3755, -27.3998)" d="M 521.375 35.6198 C 525.917 35.6198 529.599 31.9396 529.599 27.3998 C 529.599 22.86 525.917 19.1798 521.375 19.1798 C 516.834 19.1798 513.152 22.86 513.152 27.3998 C 513.152 31.9396 516.834 35.6198 521.375 35.6198 Z" stroke-linecap="round"/>
</g>
		<g transform="matrix(1.1725 0 0 1.1725 -17.5434 -10.9222)" id="Vector_9">
<path style="stroke: none; stroke-width: 1; stroke-dasharray: none; stroke-linecap: butt; stroke-dashoffset: 0; stroke-linejoin: miter; stroke-miterlimit: 4; is-custom-font: none; font-file-url: none; fill: rgb(40,152,178); fill-rule: nonzero; opacity: 0.1;" transform=" translate(-362.9345, -24.6602)" d="M 499.665 23.5642 V 38.9082 C 499.665 35.42 498.279 32.0748 495.811 29.6083 C 493.344 27.1418 489.997 25.7562 486.507 25.7562 H 239.361 C 235.872 25.7562 232.525 27.1418 230.057 29.6083 C 227.59 32.0748 226.204 35.42 226.204 38.9082 V 23.5642 C 226.204 20.076 227.59 16.7308 230.057 14.2643 C 232.525 11.7978 235.872 10.4122 239.361 10.4122 H 486.507 C 489.997 10.4122 493.344 11.7978 495.811 14.2643 C 498.279 16.7308 499.665 20.076 499.665 23.5642 V 23.5642 Z" stroke-linecap="round"/>
</g>
		<g transform="matrix(1.1725 0 0 1.1725 -18.1872 21.8455)" id="Vector_11">
<path style="stroke: none; stroke-width: 1; stroke-dasharray: none; stroke-linecap: butt; stroke-dashoffset: 0; stroke-linejoin: miter; stroke-miterlimit: 4; is-custom-font: none; font-file-url: none; fill: rgb(66,101,114); fill-rule: nonzero; opacity: 1;" transform=" translate(-362.3855, -52.6082)" d="M 496.704 47.6762 H 228.067 V 57.5402 H 496.704 V 47.6762 Z" stroke-linecap="round"/>
</g>
</g>
</g>
		<g transform="matrix(1 0 0 1 2.9989 497.6906)" id="811875">
<g style="">
		<g transform="matrix(1.1725 0 0 1.1725 0.0049 22.8323)" id="Vector_8">
<path style="stroke: none; stroke-width: 1; stroke-dasharray: none; stroke-linecap: butt; stroke-dashoffset: 0; stroke-linejoin: miter; stroke-miterlimit: 4; is-custom-font: none; font-file-url: none; fill: rgb(40,152,178); fill-rule: nonzero; opacity: 0.1;" transform=" translate(-362.9345, -371.5825)" d="M 499.665 338.193 V 391.82 C 499.665 395.308 498.279 398.654 495.811 401.12 C 493.344 403.587 489.997 404.972 486.507 404.972 H 239.361 C 235.872 404.972 232.525 403.587 230.057 401.12 C 227.59 398.654 226.204 395.308 226.204 391.82 V 361.768 C 235.48 366.886 244.263 373.583 253.78 378.306 C 280.457 391.557 312.08 388.96 341.411 383.786 C 395.598 374.339 448.01 357.373 499.665 338.193 Z" stroke-linecap="round"/>
</g>
		<g transform="matrix(1.1725 0 0 1.1725 1.3611 22.8313)" id="Vector_12">
<path style="stroke: none; stroke-width: 1; stroke-dasharray: none; stroke-linecap: butt; stroke-dashoffset: 0; stroke-linejoin: miter; stroke-miterlimit: 4; is-custom-font: none; font-file-url: none; fill: rgb(66,101,114); fill-rule: nonzero; opacity: 1;" transform=" translate(-362.3855, -358.391)" d="M 496.704 353.459 H 228.067 V 363.323 H 496.704 V 353.459 Z" stroke-linecap="round"/>
</g>
		<g transform="matrix(1.1725 0 0 1.1725 -39.9331 -20.2158)" id="Vector_23">
<path style="stroke: none; stroke-width: 1; stroke-dasharray: none; stroke-linecap: butt; stroke-dashoffset: 0; stroke-linejoin: miter; stroke-miterlimit: 4; is-custom-font: none; font-file-url: none; fill: rgb(43,195,247); fill-rule: nonzero; opacity: 1;" transform=" translate(-327.1671, -321.676)" d="M 253.287 326.608 H 401.048 C 407.396 326.608 407.407 316.744 401.048 316.744 H 253.287 C 246.938 316.744 246.927 326.608 253.287 326.608 Z" stroke-linecap="round"/>
</g>
		<g transform="matrix(1.1725 0 0 1.1725 -39.9331 -56.1963)" id="Vector_24">
<path style="stroke: none; stroke-width: 1; stroke-dasharray: none; stroke-linecap: butt; stroke-dashoffset: 0; stroke-linejoin: miter; stroke-miterlimit: 4; is-custom-font: none; font-file-url: none; fill: rgb(43,195,247); fill-rule: nonzero; opacity: 0.2;" transform=" translate(-327.1671, -290.988)" d="M 253.287 295.92 H 401.048 C 407.396 295.92 407.407 286.056 401.048 286.056 H 253.287 C 246.938 286.056 246.927 295.92 253.287 295.92 Z" stroke-linecap="round"/>
</g>
</g>
</g>
		<g transform="matrix(1 0 0 1 1.9989 -29.5931)" id="433424">
<g style="">
		<g transform="matrix(2.7735 0 0 3.3655 220.8406 -174.2367)" id="Vector" clip-path="url(#CLIPPATH_33)">
<clipPath id="CLIPPATH_33">
	<rect transform="matrix(1 0 0 1 -71.628 104.1131)" id="clip0" x="-264" y="-209.5" rx="0" ry="0" width="528" height="419"/>
</clipPath>
<path style="stroke: none; stroke-width: 1; stroke-dasharray: none; stroke-linecap: butt; stroke-dashoffset: 0; stroke-linejoin: miter; stroke-miterlimit: 4; is-custom-font: none; font-file-url: none; fill: rgb(56,155,243); fill-rule: nonzero; opacity: 0.8;" transform=" translate(-335.628, -105.3869)" d="M 409.862 77.1692 L 280.077 162.088 C 278.196 163.323 276.09 164.173 273.882 164.59 C 271.673 165.006 269.405 164.981 267.206 164.516 C 262.765 163.576 258.877 160.901 256.398 157.078 C 255.17 155.185 254.325 153.068 253.911 150.846 C 253.497 148.625 253.522 146.343 253.985 144.132 C 254.919 139.665 257.579 135.755 261.38 133.261 L 391.229 48.6675 C 393.111 47.437 395.215 46.5913 397.422 46.1788 C 399.629 45.7663 401.895 45.795 404.091 46.2633 C 406.286 46.7316 408.369 47.6303 410.22 48.9081 C 412.07 50.1859 413.652 51.8178 414.876 53.7106 C 416.099 55.6034 416.94 57.7201 417.35 59.9397 C 417.76 62.1593 417.732 64.4385 417.266 66.647 C 416.801 68.8556 415.907 70.9502 414.636 72.8115 C 413.366 74.6727 411.744 76.264 409.862 77.4945 V 77.1692 Z" stroke-linecap="round"/>
</g>
		<g transform="matrix(2.7735 0 0 3.3655 -200.7703 159.2675)" id="Vector_2" clip-path="url(#CLIPPATH_34)">
<clipPath id="CLIPPATH_34">
	<rect transform="matrix(1 0 0 1 80.387 5.0183)" id="clip0" x="-264" y="-209.5" rx="0" ry="0" width="528" height="419"/>
</clipPath>
<path style="stroke: none; stroke-width: 1; stroke-dasharray: none; stroke-linecap: butt; stroke-dashoffset: 0; stroke-linejoin: miter; stroke-miterlimit: 4; is-custom-font: none; font-file-url: none; fill: rgb(255,157,35); fill-rule: nonzero; opacity: 0.8;" transform=" translate(-183.613, -204.4817)" d="M 236.342 190.654 L 149.517 247.267 C 145.717 249.752 141.09 250.617 136.655 249.671 C 132.221 248.725 128.341 246.046 125.87 242.223 C 123.399 238.401 122.539 233.747 123.48 229.287 C 124.42 224.827 127.084 220.925 130.884 218.44 L 217.709 161.697 C 219.591 160.466 221.695 159.62 223.902 159.208 C 226.109 158.795 228.375 158.824 230.571 159.292 C 232.767 159.761 234.849 160.659 236.7 161.937 C 238.55 163.215 240.133 164.847 241.356 166.74 C 242.579 168.632 243.42 170.749 243.83 172.969 C 244.241 175.188 244.212 177.468 243.746 179.676 C 243.281 181.885 242.387 183.979 241.117 185.84 C 239.846 187.702 238.224 189.293 236.342 190.524 V 190.654 Z" stroke-linecap="round"/>
</g>
		<g transform="matrix(2.7735 0 0 3.3655 53.0989 -242.3234)" id="Vector_3" clip-path="url(#CLIPPATH_35)">
<clipPath id="CLIPPATH_35">
	<rect transform="matrix(1 0 0 1 -11.1474 124.3439)" id="clip0" x="-264" y="-209.5" rx="0" ry="0" width="528" height="419"/>
</clipPath>
<path style="stroke: none; stroke-width: 1; stroke-dasharray: none; stroke-linecap: butt; stroke-dashoffset: 0; stroke-linejoin: miter; stroke-miterlimit: 4; is-custom-font: none; font-file-url: none; fill: rgb(170,125,255); fill-rule: nonzero; opacity: 1;" transform=" translate(-275.1474, -85.1561)" d="M 348.916 57.1936 L 219.067 142.113 C 215.272 144.307 210.784 144.952 206.529 143.915 C 202.275 142.877 198.579 140.236 196.204 136.537 C 193.83 132.838 192.958 128.363 193.769 124.036 C 194.581 119.71 197.013 115.861 200.563 113.286 L 330.412 28.692 C 332.294 27.4614 334.399 26.6158 336.605 26.2033 C 338.812 25.7907 341.078 25.8194 343.274 26.2877 C 345.47 26.756 347.553 27.6547 349.403 28.9326 C 351.254 30.2104 352.836 31.8423 354.059 33.7351 C 355.283 35.6279 356.124 37.7445 356.534 39.9642 C 356.944 42.1838 356.915 44.463 356.45 46.6715 C 355.984 48.88 355.091 50.9747 353.82 52.8359 C 352.55 54.6971 350.927 56.2884 349.045 57.519 L 348.916 57.1936 Z" stroke-linecap="round"/>
</g>
		<g transform="matrix(2.7735 0 0 3.3655 -369.802 93.0566)" id="Vector_4" clip-path="url(#CLIPPATH_36)">
<clipPath id="CLIPPATH_36">
	<rect transform="matrix(1 0 0 1 141.3326 24.6917)" id="clip0" x="-264" y="-209.5" rx="0" ry="0" width="528" height="419"/>
</clipPath>
<path style="stroke: none; stroke-width: 1; stroke-dasharray: none; stroke-linecap: butt; stroke-dashoffset: 0; stroke-linejoin: miter; stroke-miterlimit: 4; is-custom-font: none; font-file-url: none; fill: rgb(56,155,243); fill-rule: nonzero; opacity: 1;" transform=" translate(-122.6674, -184.8083)" d="M 175.396 170.688 L 88.5714 227.756 C 86.6895 228.987 84.585 229.832 82.3781 230.245 C 80.1713 230.657 77.9052 230.629 75.7094 230.16 C 73.5136 229.692 71.4309 228.793 69.5804 227.515 C 67.7299 226.238 66.1478 224.606 64.9243 222.713 C 63.7008 220.82 62.86 218.703 62.4499 216.484 C 62.0397 214.264 62.0683 211.985 62.5339 209.777 C 62.9995 207.568 63.893 205.473 65.1635 203.612 C 66.434 201.751 68.0565 200.16 69.9384 198.929 L 156.763 141.861 C 160.564 139.375 165.19 138.511 169.625 139.456 C 174.06 140.402 177.939 143.081 180.41 146.904 C 182.881 150.726 183.741 155.38 182.801 159.84 C 181.86 164.301 179.197 168.203 175.396 170.688 Z" stroke-linecap="round"/>
</g>
		<g transform="matrix(2.7735 0 0 3.3655 339.6563 -470.1856)" id="Vector_5" clip-path="url(#CLIPPATH_37)">
<clipPath id="CLIPPATH_37">
	<rect transform="matrix(1 0 0 1 -114.4683 192.0491)" id="clip0" x="-264" y="-209.5" rx="0" ry="0" width="528" height="419"/>
</clipPath>
<path style="stroke: none; stroke-width: 1; stroke-dasharray: none; stroke-linecap: butt; stroke-dashoffset: 0; stroke-linejoin: miter; stroke-miterlimit: 4; is-custom-font: none; font-file-url: none; fill: rgb(255,157,35); fill-rule: nonzero; opacity: 1;" transform=" translate(-378.4683, -17.4509)" d="M 388.188 31.6218 L 387.411 32.1424 C 385.529 33.3729 383.425 34.2186 381.218 34.6311 C 379.011 35.0437 376.745 35.015 374.549 34.5467 C 372.353 34.0784 370.271 33.1797 368.42 31.9018 C 366.57 30.624 364.988 28.9921 363.764 27.0993 C 362.541 25.2065 361.7 23.0899 361.29 20.8702 C 360.88 18.6506 360.908 16.3714 361.374 14.1629 C 361.839 11.9544 362.733 9.85969 364.003 7.99847 C 365.274 6.13726 366.896 4.54595 368.778 3.31542 L 369.425 2.79484 C 371.307 1.55575 373.413 0.701619 375.623 0.281201 C 377.833 -0.139217 380.104 -0.117685 382.306 0.344567 C 384.508 0.806819 386.598 1.70074 388.456 2.97529 C 390.314 4.24984 391.905 5.88005 393.137 7.77286 C 394.369 9.66567 395.218 11.784 395.636 14.0069 C 396.054 16.2298 396.033 18.5137 395.573 20.7283 C 395.114 22.9429 394.225 25.0448 392.958 26.9139 C 391.69 28.783 390.069 30.3827 388.188 31.6218 V 31.6218 Z" stroke-linecap="round"/>
</g>
		<g transform="matrix(2.7735 0 0 3.3655 203.0781 41.1455)" id="Vector_6" clip-path="url(#CLIPPATH_38)">
<clipPath id="CLIPPATH_38">
	<rect transform="matrix(1 0 0 1 -65.2236 40.1161)" id="clip0" x="-264" y="-209.5" rx="0" ry="0" width="528" height="419"/>
</clipPath>
<path style="stroke: none; stroke-width: 1; stroke-dasharray: none; stroke-linecap: butt; stroke-dashoffset: 0; stroke-linejoin: miter; stroke-miterlimit: 4; is-custom-font: none; font-file-url: none; fill: rgb(56,155,243); fill-rule: nonzero; opacity: 0.5;" transform=" translate(-329.2236, -169.3839)" d="M 403.263 141.336 L 273.479 226.255 C 269.671 228.59 265.109 229.342 260.759 228.349 C 256.41 227.357 252.616 224.699 250.184 220.939 C 247.751 217.18 246.87 212.615 247.728 208.213 C 248.587 203.812 251.117 199.92 254.781 197.363 L 384.63 112.769 C 386.512 111.539 388.616 110.693 390.823 110.28 C 393.03 109.868 395.296 109.897 397.492 110.365 C 399.688 110.833 401.77 111.732 403.621 113.01 C 405.472 114.288 407.054 115.92 408.277 117.812 C 409.501 119.705 410.341 121.822 410.752 124.041 C 411.162 126.261 411.133 128.54 410.668 130.749 C 410.202 132.957 409.308 135.052 408.038 136.913 C 406.767 138.774 405.145 140.366 403.263 141.596 V 141.336 Z" stroke-linecap="round"/>
</g>
		<g transform="matrix(2.7735 0 0 3.3655 -217.9225 374.6402)" id="Vector_7" clip-path="url(#CLIPPATH_39)">
<clipPath id="CLIPPATH_39">
	<rect transform="matrix(1 0 0 1 86.5713 -58.9758)" id="clip0" x="-264" y="-209.5" rx="0" ry="0" width="528" height="419"/>
</clipPath>
<path style="stroke: none; stroke-width: 1; stroke-dasharray: none; stroke-linecap: butt; stroke-dashoffset: 0; stroke-linejoin: miter; stroke-miterlimit: 4; is-custom-font: none; font-file-url: none; fill: rgb(170,125,255); fill-rule: nonzero; opacity: 0.5;" transform=" translate(-177.4287, -268.4758)" d="M 229.743 254.814 L 142.918 311.557 C 139.117 314.042 134.491 314.907 130.056 313.961 C 125.621 313.015 121.742 310.336 119.271 306.514 C 116.8 302.691 115.94 298.038 116.881 293.577 C 117.821 289.117 120.484 285.215 124.285 282.73 L 211.11 225.922 C 212.993 224.542 215.136 223.563 217.407 223.045 C 219.679 222.526 222.032 222.478 224.323 222.904 C 226.613 223.331 228.793 224.222 230.73 225.524 C 232.667 226.826 234.32 228.511 235.587 230.477 C 236.855 232.442 237.711 234.647 238.104 236.957 C 238.496 239.266 238.416 241.632 237.869 243.91 C 237.322 246.187 236.32 248.329 234.922 250.203 C 233.525 252.078 231.763 253.647 229.743 254.814 V 254.814 Z" stroke-linecap="round"/>
</g>
		<g transform="matrix(2.7735 0 0 3.3655 490.6044 -187.4482)" id="Vector_8" clip-path="url(#CLIPPATH_40)">
<clipPath id="CLIPPATH_40">
	<rect transform="matrix(1 0 0 1 -168.8939 108.0388)" id="clip0" x="-264" y="-209.5" rx="0" ry="0" width="528" height="419"/>
</clipPath>
<path style="stroke: none; stroke-width: 1; stroke-dasharray: none; stroke-linecap: butt; stroke-dashoffset: 0; stroke-linejoin: miter; stroke-miterlimit: 4; is-custom-font: none; font-file-url: none; fill: rgb(255,157,35); fill-rule: nonzero; opacity: 0.5;" transform=" translate(-432.8939, -101.4612)" d="M 442.47 115.762 L 441.629 116.283 C 437.825 118.48 433.328 119.128 429.064 118.092 C 424.8 117.056 421.093 114.415 418.705 110.714 C 416.318 107.012 415.432 102.531 416.231 98.1924 C 417.029 93.8538 419.45 89.988 422.996 87.3905 L 423.772 86.8699 C 427.58 84.5346 432.142 83.7834 436.492 84.7759 C 440.841 85.7683 444.634 88.4263 447.067 92.1856 C 449.5 95.945 450.381 100.51 449.523 104.912 C 448.664 109.313 446.134 113.206 442.47 115.762 V 115.762 Z" stroke-linecap="round"/>
</g>
</g>
</g>
</g>
</g>
<g transform="matrix(0.8278 0 0 0.8278 138.3751 319.1993)" id="202243">
<g style="">
		<g transform="matrix(1 0 0 1 -0.7853 1.9075)" id="Vector_22" clip-path="url(#CLIPPATH_41)">
<clipPath id="CLIPPATH_41">
	<rect transform="matrix(1 0 0 1 -2.7213 -86.3065)" id="clip0" x="-264" y="-209.5" rx="0" ry="0" width="528" height="419"/>
</clipPath>
<path style="stroke: none; stroke-width: 1; stroke-dasharray: none; stroke-linecap: butt; stroke-dashoffset: 0; stroke-linejoin: miter; stroke-miterlimit: 4; is-custom-font: none; font-file-url: none; fill: rgb(255,255,255); fill-rule: nonzero; opacity: 1;" transform=" translate(-266.7213, -295.8065)" d="M 258.08 177.832 C 258.412 177.265 258.884 176.795 259.452 176.469 C 260.019 176.142 260.662 175.97 261.315 175.97 C 261.969 175.97 262.611 176.142 263.179 176.469 C 263.746 176.795 264.219 177.265 264.55 177.832 L 327.113 292.814 L 386.571 402.526 C 387.125 403.48 387.371 404.582 387.275 405.683 C 387.18 406.783 386.747 407.826 386.038 408.668 C 385.328 409.511 384.375 410.111 383.312 410.386 C 382.249 410.661 381.127 410.598 380.101 410.205 L 267.526 373.113 C 266.372 372.722 265.122 372.722 263.968 373.113 L 153.076 415.41 C 152.092 415.711 151.043 415.72 150.054 415.439 C 149.065 415.157 148.177 414.596 147.496 413.821 C 146.814 413.047 146.368 412.092 146.211 411.07 C 146.053 410.049 146.19 409.003 146.606 408.057 L 201.146 295.743 L 258.08 177.832 Z" stroke-linecap="round"/>
</g>
		<g transform="matrix(1 0 0 1 0.7487 84.4617)" id="Vector_23" clip-path="url(#CLIPPATH_42)">
<clipPath id="CLIPPATH_42">
	<rect transform="matrix(1 0 0 1 -4.2552 -168.8607)" id="clip0" x="-264" y="-209.5" rx="0" ry="0" width="528" height="419"/>
</clipPath>
<path style="stroke: none; stroke-width: 1; stroke-dasharray: none; stroke-linecap: butt; stroke-dashoffset: 0; stroke-linejoin: miter; stroke-miterlimit: 4; is-custom-font: none; font-file-url: none; fill: rgb(206,193,188); fill-rule: nonzero; opacity: 1;" transform=" translate(-268.2552, -378.3607)" d="M 381.718 405.53 L 269.144 368.373 C 267.99 367.982 266.74 367.982 265.585 368.373 L 154.628 410.67 C 153.641 411.002 152.579 411.033 151.575 410.762 C 150.57 410.491 149.666 409.929 148.977 409.145 C 148.287 408.361 147.842 407.391 147.697 406.355 C 147.551 405.319 147.712 404.262 148.159 403.317 L 158.122 382.82 L 265.262 346.119 C 266.449 345.663 267.762 345.663 268.95 346.119 L 379.907 382.624 L 388.188 397.916 C 388.719 398.869 388.947 399.962 388.84 401.049 C 388.734 402.135 388.299 403.163 387.593 403.993 C 386.888 404.823 385.947 405.415 384.896 405.69 C 383.845 405.965 382.736 405.909 381.718 405.53 V 405.53 Z" stroke-linecap="round"/>
</g>
		<g transform="matrix(1 0 0 1 0.2005 -1.3698)" id="Vector_24" clip-path="url(#CLIPPATH_43)">
<clipPath id="CLIPPATH_43">
	<rect transform="matrix(1 0 0 1 -3.707 -83.0292)" id="clip0" x="-264" y="-209.5" rx="0" ry="0" width="528" height="419"/>
</clipPath>
<path style="stroke: rgb(115,46,84); stroke-width: 2; stroke-dasharray: none; stroke-linecap: butt; stroke-dashoffset: 0; stroke-linejoin: miter; stroke-miterlimit: 10; is-custom-font: none; font-file-url: none; fill: none; fill-rule: nonzero; opacity: 1;" transform=" translate(-267.707, -292.5292)" d="M 259.18 174.517 C 259.512 173.95 259.984 173.48 260.552 173.153 C 261.119 172.827 261.762 172.655 262.415 172.655 C 263.069 172.655 263.711 172.827 264.279 173.153 C 264.846 173.48 265.319 173.95 265.65 174.517 L 328.019 289.694 L 387.476 399.471 C 388.03 400.425 388.277 401.527 388.181 402.628 C 388.086 403.728 387.653 404.771 386.943 405.614 C 386.234 406.456 385.281 407.056 384.218 407.331 C 383.155 407.607 382.033 407.543 381.007 407.15 L 268.626 369.863 C 267.477 369.44 266.217 369.44 265.068 369.863 L 154.176 412.16 C 153.184 412.47 152.125 412.484 151.126 412.201 C 150.127 411.917 149.23 411.349 148.546 410.564 C 147.861 409.779 147.418 408.811 147.269 407.778 C 147.119 406.745 147.271 405.69 147.706 404.742 L 202.246 292.427 L 259.18 174.517 Z" stroke-linecap="round"/>
</g>
</g>
</g>
</svg>